# xmcd
#
# Track frame offsets:
#	150
#	16186
#	27784
#	39975
#	50781
#	65199
#	78020
#	89245
#	102281
#	115865
#	129884
#	141321
#	153809
#	164720
#	177836
#	191227
#
# Disc length: 2692 seconds
#
# Revision: 1
# Processed by: cddbd v1.5.2PL0 Copyright (c) Steve Scherf et al.
# Submitted via: audiograbber 1.83.01
#
DISCID=d80a8210
DTITLE=Various Artist - All The... 60's [Disc 2]
DYEAR=2012
DGENRE=Pop
TTITLE0=Aretha Franklin - I Say A Little Prayer
TTITLE1=The Drifters - Save The Last Dance For Me
TTITLE2=Otis Redding - (Sittin' On) The Dock Of The Bay
TTITLE3=Frankie Valli and The Four Seasons - Big Girls Don't Cry
TTITLE4=Sonny and Cher - I Got You Babe
TTITLE5=Percy Sledge - When A Man Loves A Woman
TTITLE6=Sam and Dave - Hold On I'm Coming
TTITLE7=Ray Charles - I Got A Woman
TTITLE8=Jackie Wilson - (Your Love Keeps Lifting Me) Higher And Higher
TTITLE9=Eddie Floyd - Knock On Wood
TTITLE10=Clarence Carter - Slip Away
TTITLE11=Dionne Warwick - I Just Don't Know What To Do With Myself
TTITLE12=Wilson Pickett - Land Of 1000 Dances
TTITLE13=Booker T and The MG's - Green Onions.
TTITLE14=Ben E. King - Spanish Harlem
TTITLE15=Arthur Conley - Sweet Soul Music
EXTD=
EXTT0=
EXTT1=
EXTT2=
EXTT3=
EXTT4=
EXTT5=
EXTT6=
EXTT7=
EXTT8=
EXTT9=
EXTT10=
EXTT11=
EXTT12=
EXTT13=
EXTT14=
EXTT15=
PLAYORDER=
